<svg xmlns="http://www.w3.org/2000/svg" xmlns:svg="http://www.w3.org/2000/svg" xmlns:xlink="http://www.w3.org/1999/xlink" id="svg8" width="48" height="48" version="1.1" viewBox="0 0 12.7 12.7"><metadata id="metadata5"/><g id="layer1" transform="translate(0,-284.30002)" style="display:inline"><g id="g5776" transform="matrix(0.09300075,0,0,0.09300075,0.01298886,268.94153)"><g id="g5758"><path style="fill:#609926;fill-opacity:1;stroke:#428f29;stroke-width:1;stroke-linecap:butt;stroke-linejoin:miter;stroke-miterlimit:4;stroke-dasharray:none;stroke-opacity:1" id="path3722" d="m 27.709937,195.15095 c -9.546573,-0.0272 -22.3392732,6.79805 -21.6317552,23.90397 1.105534,26.72889 25.4565952,29.20839 35.1916502,29.42301 1.068023,5.01357 12.521798,22.30563 21.001818,23.21667 l 37.15277,0 c 22.27763,-1.66785 38.9607,-75.75671 26.59321,-76.03825 -46.781583,2.47691 -49.995146,2.13838 -88.599758,0 -2.495053,-0.0266 -5.972321,-0.49474 -9.707935,-0.5054 z m 2.491319,9.45886 c 1.351378,13.69267 3.555849,21.70359 8.018216,33.94345 -11.382872,-1.50473 -21.069822,-5.22443 -22.851515,-19.10984 -0.950962,-7.4112 2.390428,-15.16769 14.833299,-14.83361 z"/><use id="use5756" width="100%" height="100%" x="0" y="0" xlink:href="#path3722"/></g><rect id="rect4599" width="34.762" height="34.762" x="87.509" y="18.292" ry="5.483" transform="matrix(0.89944557,0.43703281,-0.43703281,0.89944557,0,161.53334)" style="display:inline;fill:#fff;fill-opacity:1;stroke:none;stroke-width:.24757317;stroke-opacity:1"/><path id="path4525" d="m 79.804947,57.359056 3.241146,1.609954 0,-23.713279 -3.262698,0 z" style="display:inline;fill:#fff;fill-opacity:1;stroke:none;stroke-width:.26644793px;stroke-linecap:butt;stroke-linejoin:miter;stroke-opacity:1" transform="translate(0,161.53334)"/><g id="g4539" style="display:inline" transform="translate(0,161.53334)"><circle style="fill:#609926;fill-opacity:1;stroke:none;stroke-width:.26458332;stroke-opacity:1" id="path4606" cx="49.065" cy="90.078" r="3.475" transform="matrix(0.94090361,-0.33867448,0.33867448,0.94090361,0,0)"/><circle style="fill:#609926;fill-opacity:1;stroke:none;stroke-width:.26458332;stroke-opacity:1" id="path4606-3" cx="36.81" cy="102.105" r="3.475" transform="matrix(0.94090361,-0.33867448,0.33867448,0.94090361,0,0)"/><circle style="fill:#609926;fill-opacity:1;stroke:none;stroke-width:.26458332;stroke-opacity:1" id="path4606-1" cx="46.484" cy="111.439" r="3.475" transform="matrix(0.94090361,-0.33867448,0.33867448,0.94090361,0,0)"/><rect style="fill:#609926;fill-opacity:1;stroke:none;stroke-width:.27444693;stroke-opacity:1" id="rect4629-8" width="2.673" height="27.261" x="97.333" y="18.062" transform="matrix(0.89860913,0.43875007,-0.43875007,0.89860913,0,0)"/><path style="fill:none;stroke:#609926;stroke-width:2.68000007;stroke-linecap:butt;stroke-linejoin:miter;stroke-miterlimit:4;stroke-dasharray:none;stroke-opacity:1" id="path4514" d="m 76.558096,68.116343 c 12.97589,6.395378 13.012989,4.101862 4.890858,20.907244"/></g></g></g></svg>